name C:\Users\antoi\Documents\MyRepositories\upper-imu-dc\Results\main_tracking\Case_94\kinematics.mot
datacolumns 43
datarows 9
range 4.50000000 4.66000000
endheader 
time	clav_prot	clav_elev	scapula_abduction	scapula_elevation	scapula_upward_rot	scapula_winging	plane_elv	shoulder_elv	axial_rot	TrapeziusScapula_M/activation	TrapeziusScapula_S/activation	TrapeziusScapula_I/activation	TrapeziusClavicle_S/activation	SerratusAnterior_I/activation	SerratusAnterior_M/activation	SerratusAnterior_S/activation	Rhomboideus_S/activation	Rhomboideus_I/activation	LevatorScapulae/activation	Coracobrachialis/activation	DeltoideusClavicle_A/activation	DeltoideusScapula_P/activation	DeltoideusScapula_M/activation	LatissimusDorsi_S/activation	LatissimusDorsi_M/activation	LatissimusDorsi_I/activation	PectoralisMajorClavicle_S/activation	PectoralisMajorThorax_I/activation	PectoralisMajorThorax_M/activation	TeresMajor/activation	Infraspinatus_I/activation	Infraspinatus_S/activation	PectoralisMinor/activation	TeresMinor/activation	Subscapularis_S/activation	Subscapularis_M/activation	Subscapularis_I/activation	Supraspinatus_P/activation	Supraspinatus_A/activation	TRIlong/activation	BIC_long/activation	BIC_brevis/activation	
          4.50000000	        -35.48820969	         -0.33601814	        -21.01396599	         -6.51965761	         34.20932209	         -3.00391814	          3.26727712	         64.28768471	          5.26813509	          0.03663487	          0.09885292	          0.02879874	          0.02377129	          0.08307231	          0.06001589	          0.01000000	          0.01000000	          0.01000000	          0.01000000	          0.01000000	          0.03691025	          0.01944275	          0.15953482	          0.01000000	          0.01000000	          0.01000000	          0.01000000	          0.01000000	          0.01000000	          0.01000000	          0.04619374	          0.04784849	          0.01000000	          0.01600882	          0.01000000	          0.01000000	          0.01000000	          0.01858902	          0.01481986	          0.01000000	          0.02284729	          0.01000000	
          4.52000000	        -35.54582000	         -0.26269319	        -20.82286293	         -6.53683140	         34.62291999	         -3.13280545	          3.37748099	         64.91076331	          5.37525679	          0.03679612	          0.09937282	          0.02888799	          0.02394183	          0.08429197	          0.06188005	          0.01000000	          0.01000000	          0.01000000	          0.01000000	          0.01000000	          0.03802241	          0.01930927	          0.16073277	          0.01000000	          0.01000000	          0.01000000	          0.01000000	          0.01000000	          0.01000000	          0.01000000	          0.04654376	          0.04811453	          0.01000000	          0.01605521	          0.01000000	          0.01000000	          0.01000000	          0.01870282	          0.01488205	          0.01000000	          0.02294104	          0.01000000	
          4.54000000	        -35.60698372	         -0.19222667	        -20.62635392	         -6.55742287	         35.04927262	         -3.26343889	          3.48569340	         65.52494195	          5.45182154	          0.03695926	          0.09982746	          0.02898674	          0.02409799	          0.08545441	          0.06372626	          0.01000000	          0.01000000	          0.01000000	          0.01000000	          0.01000000	          0.03916766	          0.01906838	          0.16165408	          0.01000000	          0.01000000	          0.01000000	          0.01000000	          0.01000000	          0.01000000	          0.01000000	          0.04689553	          0.04835494	          0.01000000	          0.01610508	          0.01000000	          0.01000000	          0.01000000	          0.01883087	          0.01498379	          0.01000000	          0.02306744	          0.01000000	
          4.56000000	        -35.67138904	         -0.12377766	        -20.42526249	         -6.58047287	         35.48684263	         -3.39568523	          3.59270022	         66.12870350	          5.50134175	          0.03711484	          0.10025149	          0.02906036	          0.02425147	          0.08656850	          0.06559297	          0.01000000	          0.01000000	          0.01000000	          0.01000000	          0.01000000	          0.04038426	          0.01867663	          0.16240933	          0.01000000	          0.01000000	          0.01000000	          0.01000000	          0.01000000	          0.01000000	          0.01000000	          0.04722183	          0.04856214	          0.01000000	          0.01614129	          0.01000000	          0.01000000	          0.01000000	          0.01898214	          0.01514486	          0.01000000	          0.02324736	          0.01000000	
          4.58000000	        -35.73832301	         -0.05609491	        -20.22076941	         -6.60453706	         35.93292589	         -3.52923233	          3.70023908	         66.72079873	          5.53098880	          0.03726940	          0.10070710	          0.02908768	          0.02441422	          0.08762360	          0.06749474	          0.01000000	          0.01000000	          0.01000000	          0.01000000	          0.01000000	          0.04166253	          0.01819353	          0.16313938	          0.01000000	          0.01000000	          0.01000000	          0.01000000	          0.01000000	          0.01000000	          0.01000000	          0.04750097	          0.04873936	          0.01000000	          0.01615411	          0.01000000	          0.01000000	          0.01000000	          0.01914851	          0.01534332	          0.01000000	          0.02346233	          0.01000000	
          4.60000000	        -35.80688426	          0.01231935	        -20.01424083	         -6.62793063	         36.38428996	         -3.66372700	          3.81051669	         67.30036873	          5.54985720	          0.03743050	          0.10123729	          0.02906692	          0.02459340	          0.08861868	          0.06943687	          0.01000000	          0.01000000	          0.01000000	          0.01000000	          0.01000000	          0.04297600	          0.01768444	          0.16394056	          0.01000000	          0.01000000	          0.01000000	          0.01000000	          0.01000000	          0.01000000	          0.01000000	          0.04772525	          0.04889526	          0.01000000	          0.01614132	          0.01000000	          0.01000000	          0.01000000	          0.01931959	          0.01555408	          0.01000000	          0.02368696	          0.01000000	
          4.62000000	        -35.87634631	          0.08282899	        -19.80708626	         -6.64915656	         36.83800171	         -3.79890365	          3.92567192	         67.86684417	          5.56689209	          0.03762295	          0.10189238	          0.02902408	          0.02479102	          0.08956212	          0.07140216	          0.01000000	          0.01000000	          0.01000000	          0.01000000	          0.01000000	          0.04425505	          0.01726489	          0.16490854	          0.01000000	          0.01000000	          0.01000000	          0.01000000	          0.01000000	          0.01000000	          0.01000000	          0.04789608	          0.04904790	          0.01000000	          0.01610754	          0.01000000	          0.01000000	          0.01000000	          0.01947246	          0.01572447	          0.01000000	          0.02386598	          0.01000000	
          4.64000000	        -35.94639576	          0.15643360	        -19.60068131	         -6.66715884	         37.29194632	         -3.93466502	          4.04733763	         68.41982901	          5.58931295	          0.03783647	          0.10264895	          0.02895734	          0.02500513	          0.09042890	          0.07337831	          0.01000000	          0.01000000	          0.01000000	          0.01000000	          0.01000000	          0.04549108	          0.01692887	          0.16595399	          0.01000000	          0.01000000	          0.01000000	          0.01000000	          0.01000000	          0.01000000	          0.01000000	          0.04801836	          0.04919095	          0.01000000	          0.01605800	          0.01000000	          0.01000000	          0.01000000	          0.01960618	          0.01585329	          0.01000000	          0.02400058	          0.01000000	
          4.66000000	        -36.01724469	          0.23348808	        -19.39621980	         -6.68156441	         37.74514602	         -4.07105505	          4.17634696	         68.95881144	          5.62091735	          0.03807403	          0.10348680	          0.02889351	          0.02523058	          0.09124591	          0.07536318	          0.01000000	          0.01000000	          0.01000000	          0.01000000	          0.01000000	          0.04667276	          0.01666827	          0.16703556	          0.01000000	          0.01000000	          0.01000000	          0.01000000	          0.01000000	          0.01000000	          0.01000000	          0.04811526	          0.04933548	          0.01000000	          0.01600186	          0.01000000	          0.01000000	          0.01000000	          0.01972008	          0.01594104	          0.01000000	          0.02408811	          0.01000000	
